<?xml version="1.0" encoding="UTF-8"?>
<!DOCTYPE svg PUBLIC "-//W3C//DTD SVG 1.1//EN" "http://www.w3.org/Graphics/SVG/1.1/DTD/svg11.dtd">
<svg xmlns="http://www.w3.org/2000/svg" version="1.1" width="286px" height="286px" style="shape-rendering:geometricPrecision; text-rendering:geometricPrecision; image-rendering:optimizeQuality; fill-rule:evenodd; clip-rule:evenodd" xmlns:xlink="http://www.w3.org/1999/xlink">
<g><path style="opacity:1" fill="#fdfdfc" d="M -0.5,-0.5 C 94.8333,-0.5 190.167,-0.5 285.5,-0.5C 285.5,94.8333 285.5,190.167 285.5,285.5C 190.167,285.5 94.8333,285.5 -0.5,285.5C -0.5,190.167 -0.5,94.8333 -0.5,-0.5 Z"/></g>
<g><path style="opacity:1" fill="#ee3e3f" d="M 193.5,223.5 C 194.492,223.328 195.158,223.662 195.5,224.5C 153.007,249.202 111.007,248.369 69.5,222C 42.019,201.886 26.8523,174.719 24,140.5C 21.447,85.0952 45.2803,45.9285 95.5,23C 109.469,18.2431 123.802,15.9098 138.5,16C 141.379,17.6658 142.212,20.1658 141,23.5C 140.097,24.7014 138.931,25.5348 137.5,26C 111.207,24.0976 88.207,31.7643 68.5,49C 38.4032,73.7252 25.9032,105.559 31,144.5C 43.5266,211.041 83.6933,241.874 151.5,237C 166.45,235.266 180.45,230.766 193.5,223.5 Z"/></g>
<g><path style="opacity:1" fill="#f69394" d="M 172.5,29.5 C 169.432,28.9782 166.432,28.1449 163.5,27C 166.913,26.5289 169.913,27.3622 172.5,29.5 Z"/></g>
<g><path style="opacity:1" fill="#ffcd31" d="M 147.5,29.5 C 192.49,35.4706 221.323,60.4706 234,104.5C 238.508,127.325 236.842,149.659 229,171.5C 220.022,192.479 205.188,207.312 184.5,216C 207.573,198.703 220.406,175.536 223,146.5C 230.012,98.0244 212.179,62.191 169.5,39C 162.494,34.9953 155.161,31.8286 147.5,29.5 Z"/></g>
<g><path style="opacity:1" fill="#f47575" d="M 172.5,29.5 C 174.553,29.4021 176.22,30.0687 177.5,31.5C 175.447,31.5979 173.78,30.9313 172.5,29.5 Z"/></g>
<g><path style="opacity:1" fill="#ffcd31" d="M 105.5,46.5 C 122.542,46.1198 138.208,50.9531 152.5,61C 168.263,73.349 180.596,88.5156 189.5,106.5C 197.746,99.9204 207.079,96.4204 217.5,96C 206.917,99.9136 198.751,106.747 193,116.5C 193.532,132.48 193.532,148.48 193,164.5C 191.771,194.545 177.604,215.378 150.5,227C 168.656,212.199 179.156,193.033 182,169.5C 189.38,120.105 171.88,82.6048 129.5,57C 121.819,52.6568 113.819,49.1568 105.5,46.5 Z"/></g>
<g><path style="opacity:1" fill="#f15758" d="M 177.5,31.5 C 196.519,38.3473 212.352,49.6806 225,65.5C 227.112,68.7271 228.945,72.0604 230.5,75.5C 223.784,65.618 215.784,56.7846 206.5,49C 197.188,42.5084 187.521,36.6751 177.5,31.5 Z"/></g>
<g><path style="opacity:1" fill="#18ab5f" d="M 82.5,53.5 C 110.459,53.8964 133.292,64.8964 151,86.5C 180.151,124.222 183.151,163.889 160,205.5C 144.573,224.857 126.073,228.357 104.5,216C 108.183,216.555 111.85,217.555 115.5,219C 124.673,220.136 133.673,219.469 142.5,217C 145.562,215.939 148.062,214.106 150,211.5C 160.409,196.543 165.243,179.876 164.5,161.5C 165.351,129.711 154.018,103.211 130.5,82C 116.386,70.942 100.386,64.942 82.5,64C 64.2143,76.3316 53.0476,93.4983 49,115.5C 46.8935,126.418 46.2268,137.418 47,148.5C 69.5107,132.336 94.6774,125.503 122.5,128C 105.125,130.061 88.1251,133.728 71.5,139C 60.7643,143.565 53.7643,151.399 50.5,162.5C 52.7277,180.791 61.061,195.624 75.5,207C 88.5617,216.698 102.895,224.031 118.5,229C 83.3794,223.896 58.5461,205.063 44,172.5C 32.5024,141.965 34.5024,112.298 50,83.5C 58.1712,70.4908 69.0045,60.4908 82.5,53.5 Z"/></g>
<g><path style="opacity:1" fill="#f47c7d" d="M 230.5,75.5 C 233.54,78.9136 235.54,82.9136 236.5,87.5C 233.992,83.8178 231.992,79.8178 230.5,75.5 Z"/></g>
<g><path style="opacity:1" fill="#f57979" d="M 236.5,87.5 C 239.804,94.0792 242.138,101.079 243.5,108.5C 242.662,108.842 242.328,109.508 242.5,110.5C 240.682,102.9 238.682,95.2337 236.5,87.5 Z"/></g>
<g><path style="opacity:1" fill="#f04a4a" d="M 243.5,108.5 C 248.823,151.033 236.156,187.2 205.5,217C 202.29,219.717 198.956,222.217 195.5,224.5C 195.158,223.662 194.492,223.328 193.5,223.5C 222.449,203.642 238.615,175.975 242,140.5C 243.758,130.519 243.925,120.519 242.5,110.5C 242.328,109.508 242.662,108.842 243.5,108.5 Z"/></g>
<g><path style="opacity:1" fill="#141414" d="M 237.5,190.5 C 245.5,190.5 253.5,190.5 261.5,190.5C 261.719,191.675 261.386,192.675 260.5,193.5C 257.916,192.607 255.249,192.274 252.5,192.5C 251.571,196.284 250.238,199.951 248.5,203.5C 249.815,205.316 251.315,206.983 253,208.5C 253.781,209.944 253.614,211.277 252.5,212.5C 246.7,205.702 241.7,198.369 237.5,190.5 Z"/></g>
<g><path style="opacity:1" fill="#e2e2e2" d="M 240.5,193.5 C 250.075,190.894 252.242,193.561 247,201.5C 244.969,198.645 242.803,195.978 240.5,193.5 Z"/></g>
<g><path style="opacity:1" fill="#181818" d="M 222.5,209.5 C 228.114,213.272 233.614,217.272 239,221.5C 241.608,219.65 243.775,217.316 245.5,214.5C 246.308,214.808 246.975,215.308 247.5,216C 244.375,219.113 241.375,222.28 238.5,225.5C 235.349,222.85 232.349,220.016 229.5,217C 227.473,215.121 225.14,213.954 222.5,213.5C 222.5,212.167 222.5,210.833 222.5,209.5 Z"/></g>
<g><path style="opacity:1" fill="#1a1a1a" d="M 216.5,217.5 C 221.221,222.724 226.221,227.891 231.5,233C 230.667,233.833 229.833,234.667 229,235.5C 225.414,229.909 221.08,224.909 216,220.5C 215.53,219.423 215.697,218.423 216.5,217.5 Z"/></g>
<g><path style="opacity:1" fill="#181818" d="M 210.5,223.5 C 212.124,223.36 213.29,224.027 214,225.5C 216.168,231.684 216.835,238.017 216,244.5C 213.075,249.062 209.242,250.229 204.5,248C 200.403,243.419 197.403,238.252 195.5,232.5C 196.5,232.5 197.5,232.5 198.5,232.5C 200.617,237.64 203.617,242.307 207.5,246.5C 212.611,247.394 214.944,245.06 214.5,239.5C 214.354,234.228 212.688,229.562 209.5,225.5C 209.863,224.817 210.196,224.15 210.5,223.5 Z"/></g>
<g><path style="opacity:1" fill="#161616" d="M 186.5,236.5 C 187.496,236.414 188.329,236.748 189,237.5C 191.362,243.723 193.862,249.89 196.5,256C 196.387,257.28 195.72,258.113 194.5,258.5C 193.33,254.827 191.664,251.494 189.5,248.5C 185.564,249.954 182.231,252.12 179.5,255C 180.598,257.46 181.598,259.96 182.5,262.5C 182.167,263.5 181.5,264.167 180.5,264.5C 177.641,257.281 174.641,250.114 171.5,243C 172.01,241.174 172.844,241.007 174,242.5C 174.973,245.779 176.473,248.779 178.5,251.5C 182.327,249.754 185.993,247.754 189.5,245.5C 188.42,243.004 187.086,240.67 185.5,238.5C 185.863,237.817 186.196,237.15 186.5,236.5 Z"/></g>
<g><path style="opacity:1" fill="#181818" d="M 94.5,240.5 C 95.1174,240.611 95.6174,240.944 96,241.5C 97.6913,249.143 98.1913,256.81 97.5,264.5C 96.7267,262.187 96.0601,259.854 95.5,257.5C 91.8832,256.346 88.2165,255.346 84.5,254.5C 82.3367,255.832 80.67,257.666 79.5,260C 78.552,260.483 77.552,260.649 76.5,260.5C 76.3505,259.448 76.5172,258.448 77,257.5C 83.337,252.329 89.1704,246.663 94.5,240.5 Z"/></g>
<g><path style="opacity:1" fill="#efefef" d="M 92.5,245.5 C 93.1174,245.611 93.6174,245.944 94,246.5C 94.4974,249.146 94.6641,251.813 94.5,254.5C 91.6887,254.174 89.022,253.341 86.5,252C 88.7059,249.963 90.7059,247.797 92.5,245.5 Z"/></g>
<g><path style="opacity:1" fill="#222222" d="M 110.5,244.5 C 114.477,245.259 118.477,245.925 122.5,246.5C 122.719,247.675 122.386,248.675 121.5,249.5C 114.767,245.451 111.433,247.118 111.5,254.5C 114.167,254.5 116.833,254.5 119.5,254.5C 119.5,255.5 119.5,256.5 119.5,257.5C 116.482,257.296 113.482,256.963 110.5,256.5C 110.89,260.394 110.223,264.06 108.5,267.5C 107.5,267.167 106.833,266.5 106.5,265.5C 107.73,258.452 109.063,251.452 110.5,244.5 Z"/></g>
<g><path style="opacity:1" fill="#1c1c1c" d="M 157.5,245.5 C 170.138,245.766 173.972,251.766 169,263.5C 163.887,269.187 158.22,269.854 152,265.5C 147.642,257.079 149.476,250.412 157.5,245.5 Z"/></g>
<g><path style="opacity:1" fill="#151515" d="M 128.5,247.5 C 131.518,247.335 134.518,247.502 137.5,248C 140.718,252.825 139.718,256.659 134.5,259.5C 137.975,261.808 141.308,264.308 144.5,267C 143.975,267.692 143.308,268.192 142.5,268.5C 138.518,265.848 134.851,262.848 131.5,259.5C 134.433,257.735 136.433,255.235 137.5,252C 137.355,251.228 137.022,250.561 136.5,250C 134.527,249.505 132.527,249.338 130.5,249.5C 130.5,256.167 130.5,262.833 130.5,269.5C 129.5,269.5 128.5,269.5 127.5,269.5C 128.392,262.209 128.726,254.876 128.5,247.5 Z"/></g>
<g><path style="opacity:1" fill="#f9f9f9" d="M 158.5,247.5 C 167.192,247.701 170.359,252.035 168,260.5C 165.103,265.155 160.937,266.655 155.5,265C 149.629,258.062 150.629,252.229 158.5,247.5 Z"/></g>
</svg>
