<?xml version="1.0" encoding="UTF-8"?>
<!DOCTYPE svg PUBLIC "-//W3C//DTD SVG 1.1//EN" "http://www.w3.org/Graphics/SVG/1.1/DTD/svg11.dtd">
<svg xmlns="http://www.w3.org/2000/svg" version="1.1" width="286px" height="286px" style="shape-rendering:geometricPrecision; text-rendering:geometricPrecision; image-rendering:optimizeQuality; fill-rule:evenodd; clip-rule:evenodd" xmlns:xlink="http://www.w3.org/1999/xlink">
<g><path style="opacity:1" fill="#f45b55" d="M 137.5,26.5 C 129.493,26.3336 121.493,26.5003 113.5,27C 111.618,27.1981 109.952,27.6981 108.5,28.5C 90.3499,33.6471 74.6832,42.9805 61.5,56.5C 59.9731,56.427 58.9731,57.0937 58.5,58.5C 58.1667,59.5 57.5,60.1667 56.5,60.5C 55.0937,60.9731 54.427,61.9731 54.5,63.5C 38.4491,82.4951 30.4491,104.328 30.5,129C 31.2533,160.791 42.2533,188.291 63.5,211.5C 63.9731,212.906 64.9731,213.573 66.5,213.5C 89.6713,231.383 116.005,239.217 145.5,237C 161.347,235.772 176.347,231.605 190.5,224.5C 192.993,224.131 193.66,224.797 192.5,226.5C 179.54,235.101 165.207,240.268 149.5,242C 109.274,245.707 75.4405,232.873 48,203.5C 22.431,168.41 16.431,130.077 30,88.5C 35.0188,75.1021 42.5188,63.4354 52.5,53.5C 55.8333,50.8333 58.8333,47.8333 61.5,44.5C 75.3767,30.7244 92.0434,21.8911 111.5,18C 120.427,16.057 129.427,15.057 138.5,15C 142.738,17.1716 143.572,20.3382 141,24.5C 140.184,25.8228 139.017,26.4894 137.5,26.5 Z"/></g>
<g><path style="opacity:0.207" fill="#fababa" d="M 137.5,26.5 C 127.998,27.3748 118.331,28.0415 108.5,28.5C 109.952,27.6981 111.618,27.1981 113.5,27C 121.493,26.5003 129.493,26.3336 137.5,26.5 Z"/></g>
<g><path style="opacity:0.957" fill="#ffefbd" d="M 154.5,29.5 C 152.007,29.1307 151.34,29.7973 152.5,31.5C 149.533,31.0114 146.867,29.8448 144.5,28C 148.148,27.1629 151.481,27.6629 154.5,29.5 Z"/></g>
<g><path style="opacity:0.631" fill="#fdcaca" d="M 174.5,29.5 C 173.508,29.3284 172.842,29.6618 172.5,30.5C 165.745,28.6438 159.079,26.4771 152.5,24C 160.418,23.6989 167.752,25.5322 174.5,29.5 Z"/></g>
<g><path style="opacity:1" fill="#ffd24b" d="M 154.5,29.5 C 212.693,44.4929 240.193,82.1596 237,142.5C 234.578,167.511 224.078,188.344 205.5,205C 201.612,207.772 197.612,210.272 193.5,212.5C 192.475,212.103 192.308,211.437 193,210.5C 195.454,208.559 197.287,206.225 198.5,203.5C 216.061,182.483 224.061,158.15 222.5,130.5C 225.168,99.3176 214.501,73.8176 190.5,54C 178.928,44.7116 166.261,37.2116 152.5,31.5C 151.34,29.7973 152.007,29.1307 154.5,29.5 Z"/></g>
<g><path style="opacity:0.412" fill="#fff3cf" d="M 111.5,45.5 C 109.265,45.2053 107.265,45.5386 105.5,46.5C 104.244,46.5386 103.244,46.0386 102.5,45C 105.696,44.1955 108.696,44.3622 111.5,45.5 Z"/></g>
<g><path style="opacity:1" fill="#ffd148" d="M 111.5,45.5 C 128.73,46.9483 144.063,53.1149 157.5,64C 171.014,75.6756 181.681,89.5089 189.5,105.5C 193.91,102.628 198.577,100.295 203.5,98.5C 206.58,98.2523 209.58,97.5856 212.5,96.5C 213.416,96.5427 214.083,96.8761 214.5,97.5C 205.242,102.257 198.075,109.257 193,118.5C 195.414,139.563 194.748,160.563 191,181.5C 186.341,199.978 175.841,213.978 159.5,223.5C 158.448,223.649 157.448,223.483 156.5,223C 158.464,221.549 159.797,219.716 160.5,217.5C 172.951,202.504 179.951,185.17 181.5,165.5C 182.984,160.075 183.651,154.409 183.5,148.5C 183.62,142.267 182.953,136.267 181.5,130.5C 175.586,99.0954 158.919,75.2621 131.5,59C 123.128,53.9789 114.461,49.8122 105.5,46.5C 107.265,45.5386 109.265,45.2053 111.5,45.5 Z"/></g>
<g><path style="opacity:0.863" fill="#fb8c87" d="M 174.5,29.5 C 191.993,35.4061 206.993,45.0728 219.5,58.5C 219.703,60.0443 220.37,61.3777 221.5,62.5C 221.376,63.1067 221.043,63.44 220.5,63.5C 206.903,49.0326 190.903,38.0326 172.5,30.5C 172.842,29.6618 173.508,29.3284 174.5,29.5 Z"/></g>
<g><path style="opacity:0.525" fill="#fcb7b7" d="M 61.5,44.5 C 58.8333,47.8333 55.8333,50.8333 52.5,53.5C 54.5,49.5 57.5,46.5 61.5,44.5 Z"/></g>
<g><path style="opacity:1" fill="#3bb36d" d="M 107.5,127.5 C 112.511,127.334 117.511,127.501 122.5,128C 119.964,128.186 117.631,128.686 115.5,129.5C 104.807,131.472 94.1399,133.639 83.5,136C 48.6445,145.899 42.1445,165.399 64,194.5C 79.917,212.05 99.417,223.884 122.5,230C 84.81,226.311 58.31,207.144 43,172.5C 32.4713,141.508 34.8047,111.508 50,82.5C 57.656,69.8434 68.156,60.3434 81.5,54C 109.742,53.2028 132.909,63.7028 151,85.5C 176.401,117.965 182.067,153.632 168,192.5C 153.288,224.405 130.788,231.572 100.5,214C 106.664,215.891 112.997,217.558 119.5,219C 128.611,220.399 137.278,219.065 145.5,215C 154.541,206.421 160.041,195.921 162,183.5C 169.73,143.55 158.897,109.716 129.5,82C 116.896,72.4503 102.729,66.617 87,64.5C 83.8707,64.3291 81.0373,65.1624 78.5,67C 61.8247,80.5038 51.9914,98.0038 49,119.5C 47.3658,128.82 46.8658,138.154 47.5,147.5C 65.3503,134.661 85.3503,127.994 107.5,127.5 Z"/></g>
<g><path style="opacity:0.004" fill="#fedfde" d="M 61.5,56.5 C 61.0269,57.9063 60.0269,58.573 58.5,58.5C 58.9731,57.0937 59.9731,56.427 61.5,56.5 Z"/></g>
<g><path style="opacity:0.004" fill="#fed4d4" d="M 56.5,60.5 C 56.573,62.0269 55.9063,63.0269 54.5,63.5C 54.427,61.9731 55.0937,60.9731 56.5,60.5 Z"/></g>
<g><path style="opacity:0.463" fill="#fdb3b1" d="M 219.5,58.5 C 233.435,73.3755 241.768,91.0422 244.5,111.5C 243.732,110.737 243.232,109.737 243,108.5C 243.997,122.556 243.33,136.556 241,150.5C 240.722,151.416 240.222,152.082 239.5,152.5C 244.195,130.844 243.029,109.51 236,88.5C 231.824,79.4677 226.658,71.1343 220.5,63.5C 221.043,63.44 221.376,63.1067 221.5,62.5C 220.37,61.3777 219.703,60.0443 219.5,58.5 Z"/></g>
<g><path style="opacity:0.894" fill="#ffe69e" d="M 214.5,97.5 C 214.083,96.8761 213.416,96.5427 212.5,96.5C 209.58,97.5856 206.58,98.2523 203.5,98.5C 207.094,96.3006 211.094,94.9673 215.5,94.5C 219.286,95.8675 218.953,96.8675 214.5,97.5 Z"/></g>
<g><path style="opacity:0.978" fill="#f04b4a" d="M 244.5,111.5 C 244.5,112.167 244.5,112.833 244.5,113.5C 245.124,121.819 245.457,130.152 245.5,138.5C 245.5,138.833 245.5,139.167 245.5,139.5C 243.718,149.074 241.051,158.408 237.5,167.5C 237.5,165.833 237.5,164.167 237.5,162.5C 237.851,159.097 238.518,155.763 239.5,152.5C 240.222,152.082 240.722,151.416 241,150.5C 243.33,136.556 243.997,122.556 243,108.5C 243.232,109.737 243.732,110.737 244.5,111.5 Z"/></g>
<g><path style="opacity:0.004" fill="#ffeae9" d="M 244.5,113.5 C 246.517,121.784 246.85,130.117 245.5,138.5C 245.457,130.152 245.124,121.819 244.5,113.5 Z"/></g>
<g><path style="opacity:0.28" fill="#d0eee0" d="M 107.5,127.5 C 114.011,126.182 120.678,126.182 127.5,127.5C 123.722,129.255 119.722,129.922 115.5,129.5C 117.631,128.686 119.964,128.186 122.5,128C 117.511,127.501 112.511,127.334 107.5,127.5 Z"/></g>
<g><path style="opacity:0.357" fill="#fff1c9" d="M 181.5,130.5 C 182.953,136.267 183.62,142.267 183.5,148.5C 183.651,154.409 182.984,160.075 181.5,165.5C 182.691,153.838 182.691,142.172 181.5,130.5 Z"/></g>
<g><path style="opacity:0.012" fill="#fedada" d="M 245.5,139.5 C 244.84,150.458 242.173,160.791 237.5,170.5C 237.5,169.5 237.5,168.5 237.5,167.5C 241.051,158.408 243.718,149.074 245.5,139.5 Z"/></g>
<g><path style="opacity:0.006" fill="#dadada" d="M 256.5,190.5 C 249.978,190.177 243.645,190.51 237.5,191.5C 236.957,191.44 236.624,191.107 236.5,190.5C 243.322,189.182 249.989,189.182 256.5,190.5 Z"/></g>
<g><path style="opacity:0.999" fill="#383838" d="M 256.5,190.5 C 258.199,190.34 259.866,190.506 261.5,191C 262.641,191.741 262.641,192.575 261.5,193.5C 260.743,194.773 260.077,194.773 259.5,193.5C 258.551,192.848 257.385,192.514 256,192.5C 254.319,192.608 253.152,193.275 252.5,194.5C 252.02,197.443 251.02,200.11 249.5,202.5C 248.553,205.62 249.887,207.62 253.5,208.5C 254.267,213.887 252.767,214.554 249,210.5C 245.155,204.139 241.322,197.806 237.5,191.5C 243.645,190.51 249.978,190.177 256.5,190.5 Z M 242.5,194.5 C 244.693,193.203 247.027,193.203 249.5,194.5C 249.058,195.739 248.391,196.739 247.5,197.5C 247.5,196.5 247.5,195.5 247.5,194.5C 245.833,194.5 244.167,194.5 242.5,194.5 Z M 245.5,197.5 C 246.167,197.5 246.833,197.5 247.5,197.5C 247.263,201.289 246.596,201.289 245.5,197.5 Z"/></g>
<g><path style="opacity:0.31" fill="#a7a7a7" d="M 259.5,193.5 C 257.05,193.298 254.717,193.631 252.5,194.5C 253.152,193.275 254.319,192.608 256,192.5C 257.385,192.514 258.551,192.848 259.5,193.5 Z"/></g>
<g><path style="opacity:0.808" fill="#fd9690" d="M 237.5,162.5 C 237.5,164.167 237.5,165.833 237.5,167.5C 237.5,168.5 237.5,169.5 237.5,170.5C 229.181,194.491 214.181,213.158 192.5,226.5C 193.66,224.797 192.993,224.131 190.5,224.5C 213.715,209.61 229.382,188.944 237.5,162.5 Z"/></g>
<g><path style="opacity:0.004" fill="#f3f3f3" d="M 242.5,194.5 C 244.167,194.5 245.833,194.5 247.5,194.5C 247.5,195.5 247.5,196.5 247.5,197.5C 246.833,197.5 246.167,197.5 245.5,197.5C 245.5,196.833 245.167,196.5 244.5,196.5C 244.167,195.167 243.833,195.167 243.5,196.5C 242.662,196.158 242.328,195.492 242.5,194.5 Z"/></g>
<g><path style="opacity:0.004" fill="#fefffe" d="M 254.5,195.5 C 255.251,194.427 256.251,194.26 257.5,195C 256.552,195.483 255.552,195.649 254.5,195.5 Z"/></g>
<g><path style="opacity:0.004" fill="#fefffe" d="M 254.5,195.5 C 253.833,196.167 253.833,196.167 254.5,195.5 Z"/></g>
<g><path style="opacity:0.004" fill="#fefffe" d="M 251.5,200.5 C 252.833,201.167 252.833,201.167 251.5,200.5 Z"/></g>
<g><path style="opacity:0.004" fill="#bebebe" d="M 249.5,202.5 C 250.415,204.754 251.748,206.754 253.5,208.5C 249.887,207.62 248.553,205.62 249.5,202.5 Z"/></g>
<g><path style="opacity:0.999" fill="#525251" d="M 222.5,208.5 C 228.393,212.214 233.893,216.547 239,221.5C 241.19,219.612 243.023,217.445 244.5,215C 245.448,214.517 246.448,214.351 247.5,214.5C 247.649,215.552 247.483,216.552 247,217.5C 244.62,220.924 241.787,223.924 238.5,226.5C 233.765,221.431 228.431,217.098 222.5,213.5C 221.465,211.872 221.465,210.205 222.5,208.5 Z"/></g>
<g><path style="opacity:0.004" fill="#fed8d8" d="M 63.5,211.5 C 65.0269,211.427 66.0269,212.094 66.5,213.5C 64.9731,213.573 63.9731,212.906 63.5,211.5 Z"/></g>
<g><path style="opacity:1" fill="#ffe69c" d="M 198.5,203.5 C 197.287,206.225 195.454,208.559 193,210.5C 192.308,211.437 192.475,212.103 193.5,212.5C 189.811,216.015 185.478,217.849 180.5,218C 187.079,213.878 193.079,209.045 198.5,203.5 Z"/></g>
<g><path style="opacity:0.004" fill="#fefffe" d="M 215.5,223.5 C 216.833,224.167 216.833,224.167 215.5,223.5 Z"/></g>
<g><path style="opacity:1" fill="#4c4c4c" d="M 216.5,216.5 C 221.001,221.507 225.834,226.507 231,231.5C 231.757,234.914 230.59,235.914 227.5,234.5C 223.722,229.22 219.389,224.386 214.5,220C 215.305,218.887 215.972,217.721 216.5,216.5 Z"/></g>
<g><path style="opacity:0.757" fill="#ffebae" d="M 160.5,217.5 C 159.797,219.716 158.464,221.549 156.5,223C 157.448,223.483 158.448,223.649 159.5,223.5C 155.839,226.829 151.506,228.829 146.5,229.5C 151.436,225.904 156.103,221.904 160.5,217.5 Z"/></g>
<g><path style="opacity:0.047" fill="#feffe9" d="M 146.5,229.5 C 145.833,230.167 145.833,230.167 146.5,229.5 Z"/></g>
<g><path style="opacity:1" fill="#474747" d="M 210.5,222.5 C 211.822,222.33 212.989,222.663 214,223.5C 215.325,229.135 216.492,234.802 217.5,240.5C 215.695,248.736 211.028,251.069 203.5,247.5C 200.253,243.341 197.253,239.008 194.5,234.5C 194.865,233.098 195.699,232.098 197,231.5C 200.734,235.957 204.234,240.624 207.5,245.5C 211.858,246.626 214.192,244.792 214.5,240C 213.727,234.847 212.06,230.014 209.5,225.5C 209.685,224.416 210.018,223.416 210.5,222.5 Z"/></g>
<g><path style="opacity:0.999" fill="#484949" d="M 189.5,250.5 C 189.5,249.833 189.167,249.5 188.5,249.5C 187.508,249.328 186.842,249.662 186.5,250.5C 184.632,251.263 182.965,252.263 181.5,253.5C 180.761,253.369 180.094,253.536 179.5,254C 181.694,257.206 182.527,260.706 182,264.5C 180.129,265.668 178.629,265.168 177.5,263C 179.603,262.147 179.603,260.98 177.5,259.5C 176.141,253.613 173.808,248.113 170.5,243C 171.047,242.075 171.713,241.242 172.5,240.5C 174.403,243.963 176.569,247.297 179,250.5C 182.589,249.293 185.755,247.459 188.5,245C 187.618,242.738 186.618,240.571 185.5,238.5C 185.527,236.296 186.527,235.462 188.5,236C 191.306,242.75 194.306,249.417 197.5,256C 196.924,258.268 195.59,259.268 193.5,259C 193.082,255.65 191.748,252.816 189.5,250.5 Z"/></g>
<g><path style="opacity:0.999" fill="#474747" d="M 95.5,257.5 C 94.791,256.596 93.791,256.263 92.5,256.5C 89.6354,256.945 87.1354,256.278 85,254.5C 82.8104,256.388 80.9771,258.555 79.5,261C 77.3927,261.854 76.0593,261.188 75.5,259C 81.4336,253.066 87.4336,247.066 93.5,241C 94.448,240.517 95.448,240.351 96.5,240.5C 97.6974,248.807 98.6974,257.14 99.5,265.5C 98.1667,265.5 96.8333,265.5 95.5,265.5C 96.3715,262.938 96.3715,260.272 95.5,257.5 Z M 89.5,250.5 C 89.8333,249.5 90.5,248.833 91.5,248.5C 91.9867,247.527 92.4867,246.527 93,245.5C 93.2868,247.891 93.7868,250.224 94.5,252.5C 92.1022,253.724 89.7689,253.558 87.5,252C 88.0442,251.283 88.7109,250.783 89.5,250.5 Z"/></g>
<g><path style="opacity:1" fill="#404040" d="M 109.5,244.5 C 113.892,244.757 118.225,245.424 122.5,246.5C 123.471,247.962 123.138,249.295 121.5,250.5C 118.982,248.127 115.982,247.127 112.5,247.5C 111.986,249.512 111.82,251.512 112,253.5C 114.941,254.059 117.775,254.893 120.5,256C 119.953,256.925 119.287,257.758 118.5,258.5C 115.897,257.438 113.23,257.272 110.5,258C 110.957,258.414 111.291,258.914 111.5,259.5C 110.787,261.776 110.287,264.109 110,266.5C 108.989,267.337 107.822,267.67 106.5,267.5C 107.609,259.848 108.609,252.181 109.5,244.5 Z"/></g>
<g><path style="opacity:0.999" fill="#434343" d="M 156.5,245.5 C 168.512,243.512 173.345,248.512 171,260.5C 167.858,267.939 162.358,270.439 154.5,268C 149.787,263.904 148.287,258.737 150,252.5C 151.694,249.642 153.861,247.309 156.5,245.5 Z M 164.5,249.5 C 160.661,249.612 160.661,250.279 164.5,251.5C 165.107,251.376 165.44,251.043 165.5,250.5C 167.884,251.425 168.884,253.258 168.5,256C 167.405,262.88 163.405,265.88 156.5,265C 151.632,261.448 150.798,257.282 154,252.5C 156.937,248.228 160.437,247.228 164.5,249.5 Z"/></g>
<g><path style="opacity:1" fill="#494949" d="M 128.5,246.5 C 132.257,246.071 135.757,246.737 139,248.5C 141.326,253.199 140.16,256.866 135.5,259.5C 138.246,261.623 141.079,263.623 144,265.5C 144.925,268.134 144.091,269.301 141.5,269C 137.908,266.287 134.408,263.453 131,260.5C 131.234,263.401 130.901,266.401 130,269.5C 129,270.833 128,270.833 127,269.5C 127.134,261.831 127.634,254.164 128.5,246.5 Z M 130.5,249.5 C 133.346,249.03 135.679,249.863 137.5,252C 136,254.833 133.833,257 131,258.5C 130.896,255.337 130.729,252.337 130.5,249.5 Z"/></g>
<g><path style="opacity:0.004" fill="#fefffe" d="M 117.5,250.5 C 117.897,249.475 118.563,249.308 119.5,250C 118.906,250.464 118.239,250.631 117.5,250.5 Z"/></g>
<g><path style="opacity:0.004" fill="#fefffe" d="M 164.5,249.5 C 164.5,250.167 164.833,250.5 165.5,250.5C 165.44,251.043 165.107,251.376 164.5,251.5C 160.661,250.279 160.661,249.612 164.5,249.5 Z"/></g>
<g><path style="opacity:0.004" fill="#f4f4f4" d="M 186.5,250.5 C 186.842,249.662 187.508,249.328 188.5,249.5C 189.167,249.5 189.5,249.833 189.5,250.5C 189.53,251.497 189.03,252.164 188,252.5C 187.035,252.07 186.535,251.404 186.5,250.5 Z"/></g>
<g><path style="opacity:0.004" fill="#fefffe" d="M 181.5,253.5 C 184.001,253.511 184.168,254.178 182,255.5C 181.536,254.906 181.369,254.239 181.5,253.5 Z"/></g>
<g><path style="opacity:0.004" fill="#fefffe" d="M 84.5,256.5 C 85.8333,257.167 85.8333,257.167 84.5,256.5 Z"/></g>
<g><path style="opacity:0.004" fill="#fbfbfb" d="M 92.5,256.5 C 93.791,256.263 94.791,256.596 95.5,257.5C 94.0151,261.419 93.0151,261.086 92.5,256.5 Z"/></g>
<g><path style="opacity:0.004" fill="#fefffe" d="M 175.5,257.5 C 176.833,258.167 176.833,258.167 175.5,257.5 Z"/></g>
<g><path style="opacity:0.004" fill="#fefffe" d="M 112.5,258.5 C 113.833,259.167 113.833,259.167 112.5,258.5 Z"/></g>
<g><path style="opacity:0.004" fill="#fefffe" d="M 177.5,259.5 C 177.631,260.239 177.464,260.906 177,261.5C 176.308,260.563 176.475,259.897 177.5,259.5 Z"/></g>
</svg>
